<?xml version="1.0" encoding="utf-8"?>
<!-- Generator: Adobe Illustrator 22.1.0, SVG Export Plug-In . SVG Version: 6.00 Build 0)  -->
<svg version="1.1" id="Camada_1" xmlns="http://www.w3.org/2000/svg" xmlns:xlink="http://www.w3.org/1999/xlink" x="0px" y="0px"
	 viewBox="0 0 60.4 65.8" style="enable-background:new 0 0 60.4 65.8;" xml:space="preserve">
<style type="text/css">
	.st0{fill:#83C53B;}
</style>
<title>email</title>
<path class="st0" d="M13.5,62.1c-4.3-2.2-7.8-5.6-10.1-9.8C1.1,48-0.1,43.2,0,38.4c0-6.5,1.4-12.8,4.1-18.7
	c2.7-5.8,7-10.8,12.4-14.3C22,1.8,28.6,0,36.3,0c4.3-0.1,8.6,0.8,12.6,2.6c3.5,1.7,6.5,4.4,8.5,7.8c2.1,3.8,3.1,8.1,3,12.5
	c0.1,4.5-0.7,8.9-2.5,13c-1.4,3.4-3.7,6.4-6.6,8.7c-2.4,1.9-5.4,3-8.5,3c-4.3,0-7.1-1.7-8.4-5.3c-0.8,1.6-1.9,2.9-3.3,3.9
	c-1.4,1-3,1.4-4.7,1.4c-2.5,0.2-5-0.9-6.7-2.8c-1.7-2.2-2.5-4.9-2.4-7.6c0-3.4,0.8-6.7,2.4-9.7c1.4-3,3.6-5.5,6.3-7.4
	c2.4-1.7,5.3-2.7,8.3-2.7c1,0,1.6,0.1,1.9,0.5c0.4,0.6,0.7,1.3,0.8,2c0.9-0.2,1.9-0.3,2.8-0.3c2.1,0,3.2,0.7,3.2,2.2
	c-0.2,2.2-0.5,4.3-1,6.4c-0.8,3.4-1.3,6.8-1.5,10.3c0,0.7,0.3,1.3,0.7,1.8c0.6,0.5,1.5,0.8,2.3,0.7c1.5,0,2.9-0.8,4.4-2.4
	c1.7-1.9,2.9-4.2,3.7-6.6c1-3,1.5-6.1,1.5-9.2c0-5.1-1.5-9-4.7-11.7S41,7,35.5,7C30.2,6.9,25,8.4,20.6,11.3
	c-4.1,2.9-7.3,6.8-9.2,11.4c-2.1,4.9-3.2,10.1-3.1,15.4c0,6.3,1.8,11.3,5.4,15.1s9.1,5.6,16.3,5.6c3.3,0,6.7-0.4,9.9-1.3
	c3.5-0.9,7-2.3,10.2-4c0.5-0.3,1-0.5,1.6-0.5c0.8,0,1.6,0.4,2.1,1c0.5,0.7,0.8,1.5,0.8,2.4c0,0.7-0.2,1.4-0.5,2
	c-0.4,0.6-0.9,1.2-1.6,1.5c-3.3,2-6.9,3.5-10.7,4.4c-3.9,1-8,1.5-12,1.5C23.4,65.8,18,64.6,13.5,62.1z M31,39.5
	c0.9-1.3,1.5-2.8,1.8-4.4l2.4-11.8c-1.8,0.1-3.5,0.8-4.9,2c-1.6,1.4-2.9,3.2-3.7,5.2c-0.9,2.2-1.3,4.5-1.3,6.8
	c-0.1,1,0.2,2.1,0.8,2.9c0.5,0.7,1.3,1,2.2,1C29.4,41.1,30.4,40.4,31,39.5z"/>
</svg>
