<svg id="Camada_1" data-name="Camada 1" xmlns="http://www.w3.org/2000/svg" viewBox="0 0 60.4 65.8"><defs><style>.cls-1{fill:#fff;}</style></defs><title>email</title><path class="cls-1" d="M14.5,79.6A24.5,24.5,0,0,1,4.4,69.8,28.1,28.1,0,0,1,1,55.9,44,44,0,0,1,5.1,37.2,35,35,0,0,1,17.5,22.9q8.3-5.4,19.8-5.4a29.9,29.9,0,0,1,12.6,2.6,20.6,20.6,0,0,1,8.5,7.8,24.4,24.4,0,0,1,3,12.5,31.1,31.1,0,0,1-2.5,13,21.4,21.4,0,0,1-6.6,8.7,14,14,0,0,1-8.5,3c-4.3,0-7.1-1.7-8.4-5.3a10.4,10.4,0,0,1-3.3,3.9,7.9,7.9,0,0,1-4.7,1.4,8.2,8.2,0,0,1-6.7-2.8,11.4,11.4,0,0,1-2.4-7.6A20.8,20.8,0,0,1,20.7,45,19.7,19.7,0,0,1,27,37.6a14.4,14.4,0,0,1,8.3-2.7c1,0,1.6.1,1.9.5a4.8,4.8,0,0,1,.8,2,12.7,12.7,0,0,1,2.8-.3c2.1,0,3.2.7,3.2,2.2a57.8,57.8,0,0,1-1,6.4A63.1,63.1,0,0,0,41.5,56a2.9,2.9,0,0,0,.7,1.8,3.2,3.2,0,0,0,2.3.7c1.5,0,2.9-.8,4.4-2.4a18.7,18.7,0,0,0,3.7-6.6,27.3,27.3,0,0,0,1.5-9.2c0-5.1-1.5-9-4.7-11.7S42,24.5,36.5,24.5a25.9,25.9,0,0,0-14.9,4.3,26.4,26.4,0,0,0-9.2,11.4A37.5,37.5,0,0,0,9.3,55.6c0,6.3,1.8,11.3,5.4,15.1s9.1,5.6,16.3,5.6A36.4,36.4,0,0,0,40.9,75a46.7,46.7,0,0,0,10.2-4,3.3,3.3,0,0,1,1.6-.5,3,3,0,0,1,2.1,1,4.1,4.1,0,0,1,.8,2.4,4.6,4.6,0,0,1-.5,2,3.9,3.9,0,0,1-1.6,1.5,37,37,0,0,1-10.7,4.4,49.3,49.3,0,0,1-12,1.5C24.4,83.3,19,82.1,14.5,79.6ZM32,57a10.4,10.4,0,0,0,1.8-4.4l2.4-11.8a7.9,7.9,0,0,0-4.9,2A13.3,13.3,0,0,0,27.6,48a17.2,17.2,0,0,0-1.3,6.8,4.6,4.6,0,0,0,.8,2.9,2.6,2.6,0,0,0,2.2,1A3.8,3.8,0,0,0,32,57Z" transform="translate(-1 -17.5)"/></svg>