<svg id="Camada_1" data-name="Camada 1" xmlns="http://www.w3.org/2000/svg" viewBox="0 0 62 62"><defs><style>.cls-1{fill:#fff;}</style></defs><title>insta</title><path class="cls-1" d="M31,24.6c8.3,0,9.3,0,12.5.2a17.8,17.8,0,0,1,5.8,1,9.5,9.5,0,0,1,3.5,2.4,9.5,9.5,0,0,1,2.4,3.5,17.8,17.8,0,0,1,1,5.8c.2,3.2.2,4.2.2,12.5s0,9.3-.2,12.5a17.8,17.8,0,0,1-1,5.8,9.5,9.5,0,0,1-2.4,3.5,9.5,9.5,0,0,1-3.5,2.4,17.8,17.8,0,0,1-5.8,1c-3.2.2-4.2.2-12.5.2s-9.3,0-12.5-.2a17.8,17.8,0,0,1-5.8-1,9.5,9.5,0,0,1-3.5-2.4,9.5,9.5,0,0,1-2.4-3.5,17.8,17.8,0,0,1-1-5.8c-.2-3.2-.2-4.2-.2-12.5s0-9.3.2-12.5a17.8,17.8,0,0,1,1-5.8,9.5,9.5,0,0,1,2.4-3.5,9.5,9.5,0,0,1,3.5-2.4,17.8,17.8,0,0,1,5.8-1c3.2-.2,4.2-.2,12.5-.2M31,19c-8.4,0-9.5,0-12.8.2a23.3,23.3,0,0,0-7.5,1.4,16.1,16.1,0,0,0-9.1,9.1A23.3,23.3,0,0,0,.2,37.2C0,40.5,0,41.6,0,50s0,9.5.2,12.8a23.3,23.3,0,0,0,1.4,7.5,16.1,16.1,0,0,0,9.1,9.1,23.3,23.3,0,0,0,7.5,1.4c3.3.2,4.4.2,12.8.2s9.5,0,12.8-.2a23.3,23.3,0,0,0,7.5-1.4,16.1,16.1,0,0,0,9.1-9.1,23.3,23.3,0,0,0,1.4-7.5c.2-3.3.2-4.4.2-12.8s0-9.5-.2-12.8a23.3,23.3,0,0,0-1.4-7.5,16.1,16.1,0,0,0-9.1-9.1,23.3,23.3,0,0,0-7.5-1.4C40.5,19,39.4,19,31,19Zm0,15.1A15.9,15.9,0,1,0,46.9,50,15.9,15.9,0,0,0,31,34.1Zm0,26.2A10.3,10.3,0,1,1,41.3,50,10.3,10.3,0,0,1,31,60.3ZM51.3,33.5a3.8,3.8,0,1,1-3.8-3.8A3.8,3.8,0,0,1,51.3,33.5Z" transform="translate(0 -19)"/></svg>