<?xml version="1.0" encoding="utf-8"?>
<!-- Generator: Adobe Illustrator 22.1.0, SVG Export Plug-In . SVG Version: 6.00 Build 0)  -->
<svg version="1.1" id="Camada_1" xmlns="http://www.w3.org/2000/svg" xmlns:xlink="http://www.w3.org/1999/xlink" x="0px" y="0px"
	 viewBox="0 0 62 62" style="enable-background:new 0 0 62 62;" xml:space="preserve">
<style type="text/css">
	.st0{fill:#83C53B;}
</style>
<title>insta</title>
<path class="st0" d="M31,5.6c8.3,0,9.3,0,12.5,0.2c2,0,3.9,0.3,5.8,1c1.3,0.5,2.5,1.3,3.5,2.4c1.1,1,1.9,2.2,2.4,3.5
	c0.7,1.9,1,3.8,1,5.8c0.2,3.2,0.2,4.2,0.2,12.5s0,9.3-0.2,12.5c0,2-0.3,3.9-1,5.8c-0.5,1.3-1.3,2.5-2.4,3.5c-1,1.1-2.2,1.9-3.5,2.4
	c-1.9,0.7-3.8,1-5.8,1c-3.2,0.2-4.2,0.2-12.5,0.2s-9.3,0-12.5-0.2c-2,0-3.9-0.3-5.8-1c-1.3-0.5-2.5-1.3-3.5-2.4
	c-1.1-1-1.9-2.2-2.4-3.5c-0.7-1.9-1-3.8-1-5.8C5.6,40.3,5.6,39.3,5.6,31s0-9.3,0.2-12.5c0-2,0.3-3.9,1-5.8c0.5-1.3,1.3-2.5,2.4-3.5
	c1-1.1,2.2-1.9,3.5-2.4c1.9-0.7,3.8-1,5.8-1C21.7,5.6,22.7,5.6,31,5.6 M31,0c-8.4,0-9.5,0-12.8,0.2c-2.6,0.1-5.1,0.5-7.5,1.4
	c-4.2,1.6-7.5,4.9-9.1,9.1c-0.9,2.4-1.3,4.9-1.4,7.5C0,21.5,0,22.6,0,31s0,9.5,0.2,12.8c0.1,2.6,0.5,5.1,1.4,7.5
	c1.6,4.2,4.9,7.5,9.1,9.1c2.4,0.9,4.9,1.3,7.5,1.4C21.5,62,22.6,62,31,62s9.5,0,12.8-0.2c2.6-0.1,5.1-0.5,7.5-1.4
	c4.2-1.6,7.5-4.9,9.1-9.1c0.9-2.4,1.3-4.9,1.4-7.5C62,40.5,62,39.4,62,31s0-9.5-0.2-12.8c-0.1-2.6-0.5-5.1-1.4-7.5
	c-1.6-4.2-4.9-7.5-9.1-9.1c-2.4-0.9-4.9-1.3-7.5-1.4C40.5,0,39.4,0,31,0z M31,15.1c-8.8,0-15.9,7.1-15.9,15.9S22.2,46.9,31,46.9
	S46.9,39.8,46.9,31S39.8,15.1,31,15.1C31,15.1,31,15.1,31,15.1z M31,41.3c-5.7,0-10.3-4.6-10.3-10.3S25.3,20.7,31,20.7
	c5.7,0,10.3,4.6,10.3,10.3c0,0,0,0,0,0C41.3,36.7,36.7,41.3,31,41.3z M51.3,14.5c0,2.1-1.7,3.8-3.8,3.8s-3.8-1.7-3.8-3.8
	s1.7-3.8,3.8-3.8l0,0C49.6,10.7,51.3,12.4,51.3,14.5z"/>
</svg>
