<?xml version="1.0" encoding="utf-8"?>
<!-- Generator: Adobe Illustrator 22.1.0, SVG Export Plug-In . SVG Version: 6.00 Build 0)  -->
<svg version="1.1" id="Camada_1" xmlns="http://www.w3.org/2000/svg" xmlns:xlink="http://www.w3.org/1999/xlink" x="0px" y="0px"
	 viewBox="0 0 62 100" style="enable-background:new 0 0 62 100;" xml:space="preserve">
<style type="text/css">
	.st0{fill:#83C53B;}
</style>
<title>local</title>
<path class="st0" d="M31,3.3c-17.1,0-31,13.9-31,31c0,12.4,16.3,43.2,25.3,59.1c1.8,3.1,5.9,4.2,9,2.4c1-0.6,1.8-1.4,2.4-2.4
	C45.7,77.5,62,46.7,62,34.3C62,17.2,48.1,3.3,31,3.3z M31,46c-6.6,0.1-11.9-5.2-12-11.8s5.2-11.9,11.8-12s11.9,5.2,12,11.8
	c0,0.1,0,0.1,0,0.2C42.8,40.7,37.5,46,31,46z"/>
</svg>
